<?xml version="1.0" encoding="utf-8"?>
<!-- Svg Vector Icons : http://www.onlinewebfonts.com/icon -->
<!DOCTYPE svg PUBLIC "-//W3C//DTD SVG 1.1//EN" "http://www.w3.org/Graphics/SVG/1.1/DTD/svg11.dtd">
<svg version="1.1" xmlns="http://www.w3.org/2000/svg" xmlns:xlink="http://www.w3.org/1999/xlink" x="0px" y="0px" viewBox="0 0 256 256" enable-background="new 0 0 256 256" xml:space="preserve" width="100" height="100">
<metadata> Svg Vector Icons : http://www.onlinewebfonts.com/icon </metadata>
<g><g><g><path fill="#000000" d="M135.6,65.9c-0.7,1.9-36.6,124-36.6,124.4c0,0.3,4.6,0.5,11.8,0.5c10.7,0,11.8-0.1,12.2-0.8c0.2-0.4,8.5-28.3,18.4-61.9c10-33.6,18.2-61.4,18.3-61.9c0.2-0.7-0.6-0.8-11.8-0.8C138.6,65.3,135.7,65.5,135.6,65.9z"/><path fill="#000000" d="M52.5,108.1L10,127.8l0.1,9.4l0.1,9.4l42.4,19.7L95,185.9l0.1-12.5c0-6.8,0-12.6-0.2-12.8c-0.2-0.2-12.1-5.4-26.4-11.7s-26.2-11.5-26.4-11.7c-0.2-0.2,11.6-5.5,26-11.8c14.5-6.3,26.5-11.6,26.7-11.8c0.2-0.1,0.3-5.9,0.2-12.8L95,88.4L52.5,108.1z"/><path fill="#000000" d="M160.8,101.1l0.1,12.7l27.1,11.6c14.9,6.4,27.1,11.7,27.1,11.8c0,0.1-12.2,5.4-27,11.8c-14.8,6.4-27.1,11.8-27.2,12c-0.1,0.2-0.1,6-0.1,12.7l0.1,12.2l42.4-19.4l42.4-19.4l0.1-9.9l0.1-9.9l-41.8-19.1c-23-10.5-42.2-19.3-42.7-19.5C160.8,88.4,160.7,89,160.8,101.1z"/></g></g></g>
</svg>